<svg class="plot-d6a7b5" fill="currentColor" font-family="system-ui, sans-serif" font-size="10" text-anchor="middle" width="800" height="600" viewBox="0 0 800 600" xmlns="http://www.w3.org/2000/svg" xmlns:xlink="http://www.w3.org/1999/xlink"><style>:where(.plot-d6a7b5) {
  --plot-background: white;
  display: block;
  height: auto;
  height: intrinsic;
  max-width: 100%;
}
:where(.plot-d6a7b5 text),
:where(.plot-d6a7b5 tspan) {
  white-space: pre;
}</style><g aria-label="y-axis tick" aria-hidden="true" fill="none" stroke="currentColor" transform="translate(0,18)"><path transform="translate(200,26)" d="M0,0L-6,0"/><path transform="translate(200,65)" d="M0,0L-6,0"/><path transform="translate(200,104)" d="M0,0L-6,0"/><path transform="translate(200,143)" d="M0,0L-6,0"/><path transform="translate(200,182)" d="M0,0L-6,0"/><path transform="translate(200,221)" d="M0,0L-6,0"/><path transform="translate(200,260)" d="M0,0L-6,0"/><path transform="translate(200,299)" d="M0,0L-6,0"/><path transform="translate(200,338)" d="M0,0L-6,0"/></g><g aria-label="y-axis tick label" text-anchor="end" transform="translate(-8.5,18)"><text y="0.32em" transform="translate(200,26)">DebtRatio</text><text y="0.32em" transform="translate(200,65)">MonthlyIncome</text><text y="0.32em" transform="translate(200,104)">NumberOfDependents</text><text y="0.32em" transform="translate(200,143)">NumberOfTime30-59DaysPastDueNotWorse</text><text y="0.32em" transform="translate(200,182)">NumberOfTime60-89DaysPastDueNotWorse</text><text y="0.32em" transform="translate(200,221)">NumberOfTimes90DaysLate</text><text y="0.32em" transform="translate(200,260)">RevolvingUtilizationOfUnsecuredLines</text><text y="0.32em" transform="translate(200,299)">SeriousDlqin2yrs</text><text y="0.32em" transform="translate(200,338)">age</text></g><g aria-label="x-axis tick" aria-hidden="true" fill="none" stroke="currentColor" transform="translate(29,0)"><path transform="translate(210,380)" d="M0,0L0,6"/><path transform="translate(273,380)" d="M0,0L0,6"/><path transform="translate(336,380)" d="M0,0L0,6"/><path transform="translate(399,380)" d="M0,0L0,6"/><path transform="translate(462,380)" d="M0,0L0,6"/><path transform="translate(525,380)" d="M0,0L0,6"/><path transform="translate(588,380)" d="M0,0L0,6"/><path transform="translate(651,380)" d="M0,0L0,6"/><path transform="translate(714,380)" d="M0,0L0,6"/></g><g aria-label="x-axis tick label" text-anchor="end" transform="translate(29,9.5)"><text y="0.32em" transform="translate(210,380) rotate(-90)">DebtRatio</text><text y="0.32em" transform="translate(273,380) rotate(-90)">MonthlyIncome</text><text y="0.32em" transform="translate(336,380) rotate(-90)">NumberOfDependents</text><text y="0.32em" transform="translate(399,380) rotate(-90)">NumberOfTime30-59DaysPastDueNotWorse</text><text y="0.32em" transform="translate(462,380) rotate(-90)">NumberOfTime60-89DaysPastDueNotWorse</text><text y="0.32em" transform="translate(525,380) rotate(-90)">NumberOfTimes90DaysLate</text><text y="0.32em" transform="translate(588,380) rotate(-90)">RevolvingUtilizationOfUnsecuredLines</text><text y="0.32em" transform="translate(651,380) rotate(-90)">SeriousDlqin2yrs</text><text y="0.32em" transform="translate(714,380) rotate(-90)">age</text></g><g aria-label="cell"><rect x="651" width="57" y="299" height="35" fill="rgb(49, 54, 149)"/><rect x="651" width="57" y="260" height="35" fill="rgb(213, 237, 239)"/><rect x="651" width="57" y="338" height="35" fill="rgb(254, 238, 167)"/><rect x="651" width="57" y="143" height="35" fill="rgb(209, 235, 239)"/><rect x="651" width="57" y="26" height="35" fill="rgb(244, 249, 207)"/><rect x="651" width="57" y="65" height="35" fill="rgb(253, 242, 176)"/><rect x="651" width="57" y="221" height="35" fill="rgb(188, 225, 237)"/><rect x="651" width="57" y="182" height="35" fill="rgb(205, 233, 239)"/><rect x="651" width="57" y="104" height="35" fill="rgb(245, 249, 205)"/><rect x="588" width="57" y="299" height="35" fill="rgb(213, 237, 239)"/><rect x="588" width="57" y="260" height="35" fill="rgb(49, 54, 149)"/><rect x="588" width="57" y="338" height="35" fill="rgb(254, 208, 130)"/><rect x="588" width="57" y="143" height="35" fill="rgb(213, 237, 239)"/><rect x="588" width="57" y="26" height="35" fill="rgb(221, 241, 236)"/><rect x="588" width="57" y="65" height="35" fill="rgb(253, 241, 173)"/><rect x="588" width="57" y="221" height="35" fill="rgb(213, 237, 238)"/><rect x="588" width="57" y="182" height="35" fill="rgb(224, 242, 234)"/><rect x="588" width="57" y="104" height="35" fill="rgb(237, 248, 220)"/><rect x="714" width="57" y="299" height="35" fill="rgb(254, 238, 167)"/><rect x="714" width="57" y="260" height="35" fill="rgb(254, 208, 130)"/><rect x="714" width="57" y="338" height="35" fill="rgb(49, 54, 149)"/><rect x="714" width="57" y="143" height="35" fill="rgb(253, 241, 173)"/><rect x="714" width="57" y="26" height="35" fill="rgb(253, 243, 177)"/><rect x="714" width="57" y="65" height="35" fill="rgb(233, 246, 226)"/><rect x="714" width="57" y="221" height="35" fill="rgb(254, 239, 169)"/><rect x="714" width="57" y="182" height="35" fill="rgb(253, 241, 174)"/><rect x="714" width="57" y="104" height="35" fill="rgb(254, 217, 140)"/><rect x="399" width="57" y="299" height="35" fill="rgb(209, 235, 239)"/><rect x="399" width="57" y="260" height="35" fill="rgb(213, 237, 239)"/><rect x="399" width="57" y="338" height="35" fill="rgb(253, 241, 173)"/><rect x="399" width="57" y="143" height="35" fill="rgb(49, 54, 149)"/><rect x="399" width="57" y="26" height="35" fill="rgb(239, 248, 217)"/><rect x="399" width="57" y="65" height="35" fill="rgb(251, 247, 189)"/><rect x="399" width="57" y="221" height="35" fill="rgb(209, 236, 239)"/><rect x="399" width="57" y="182" height="35" fill="rgb(204, 233, 239)"/><rect x="399" width="57" y="104" height="35" fill="rgb(243, 249, 210)"/><rect x="210" width="57" y="299" height="35" fill="rgb(244, 249, 207)"/><rect x="210" width="57" y="260" height="35" fill="rgb(221, 241, 236)"/><rect x="210" width="57" y="338" height="35" fill="rgb(253, 243, 177)"/><rect x="210" width="57" y="143" height="35" fill="rgb(239, 248, 217)"/><rect x="210" width="57" y="26" height="35" fill="rgb(49, 54, 149)"/><rect x="210" width="57" y="65" height="35" fill="rgb(254, 234, 160)"/><rect x="210" width="57" y="221" height="35" fill="rgb(252, 246, 185)"/><rect x="210" width="57" y="182" height="35" fill="rgb(248, 249, 198)"/><rect x="210" width="57" y="104" height="35" fill="rgb(236, 247, 221)"/><rect x="273" width="57" y="299" height="35" fill="rgb(253, 242, 176)"/><rect x="273" width="57" y="260" height="35" fill="rgb(253, 241, 173)"/><rect x="273" width="57" y="338" height="35" fill="rgb(233, 246, 226)"/><rect x="273" width="57" y="143" height="35" fill="rgb(251, 247, 189)"/><rect x="273" width="57" y="26" height="35" fill="rgb(254, 234, 160)"/><rect x="273" width="57" y="65" height="35" fill="rgb(49, 54, 149)"/><rect x="273" width="57" y="221" height="35" fill="rgb(254, 240, 171)"/><rect x="273" width="57" y="182" height="35" fill="rgb(253, 244, 179)"/><rect x="273" width="57" y="104" height="35" fill="rgb(219, 240, 236)"/><rect x="525" width="57" y="299" height="35" fill="rgb(188, 225, 237)"/><rect x="525" width="57" y="260" height="35" fill="rgb(213, 237, 238)"/><rect x="525" width="57" y="338" height="35" fill="rgb(254, 239, 169)"/><rect x="525" width="57" y="143" height="35" fill="rgb(209, 236, 239)"/><rect x="525" width="57" y="26" height="35" fill="rgb(252, 246, 185)"/><rect x="525" width="57" y="65" height="35" fill="rgb(254, 240, 171)"/><rect x="525" width="57" y="221" height="35" fill="rgb(49, 54, 149)"/><rect x="525" width="57" y="182" height="35" fill="rgb(194, 228, 238)"/><rect x="525" width="57" y="104" height="35" fill="rgb(246, 249, 202)"/><rect x="462" width="57" y="299" height="35" fill="rgb(205, 233, 239)"/><rect x="462" width="57" y="260" height="35" fill="rgb(224, 242, 234)"/><rect x="462" width="57" y="338" height="35" fill="rgb(253, 241, 174)"/><rect x="462" width="57" y="143" height="35" fill="rgb(204, 233, 239)"/><rect x="462" width="57" y="26" height="35" fill="rgb(248, 249, 198)"/><rect x="462" width="57" y="65" height="35" fill="rgb(253, 244, 179)"/><rect x="462" width="57" y="221" height="35" fill="rgb(194, 228, 238)"/><rect x="462" width="57" y="182" height="35" fill="rgb(49, 54, 149)"/><rect x="462" width="57" y="104" height="35" fill="rgb(246, 249, 202)"/><rect x="336" width="57" y="299" height="35" fill="rgb(245, 249, 205)"/><rect x="336" width="57" y="260" height="35" fill="rgb(237, 248, 220)"/><rect x="336" width="57" y="338" height="35" fill="rgb(254, 217, 140)"/><rect x="336" width="57" y="143" height="35" fill="rgb(243, 249, 210)"/><rect x="336" width="57" y="26" height="35" fill="rgb(236, 247, 221)"/><rect x="336" width="57" y="65" height="35" fill="rgb(219, 240, 236)"/><rect x="336" width="57" y="221" height="35" fill="rgb(246, 249, 202)"/><rect x="336" width="57" y="182" height="35" fill="rgb(246, 249, 202)"/><rect x="336" width="57" y="104" height="35" fill="rgb(49, 54, 149)"/></g><g aria-label="text" font-variant="tabular-nums" transform="translate(29,18)"><text y="0.32em" transform="translate(651,299)">1</text><text y="0.32em" transform="translate(651,260)">0.236</text><text y="0.32em" transform="translate(651,338)">-0.104</text><text y="0.32em" transform="translate(651,143)">0.252</text><text y="0.32em" transform="translate(651,26)">0.054</text><text y="0.32em" transform="translate(651,65)">-0.067</text><text y="0.32em" transform="translate(651,221)">0.333</text><text y="0.32em" transform="translate(651,182)">0.268</text><text y="0.32em" transform="translate(651,104)">0.047</text><text y="0.32em" transform="translate(588,299)">0.236</text><text y="0.32em" transform="translate(588,260)">1</text><text y="0.32em" transform="translate(588,338)">-0.259</text><text y="0.32em" transform="translate(588,143)">0.234</text><text y="0.32em" transform="translate(588,26)">0.196</text><text y="0.32em" transform="translate(588,65)">-0.078</text><text y="0.32em" transform="translate(588,221)">0.232</text><text y="0.32em" transform="translate(588,182)">0.183</text><text y="0.32em" transform="translate(588,104)">0.107</text><text y="0.32em" transform="translate(714,299)">-0.104</text><text y="0.32em" transform="translate(714,260)">-0.259</text><text y="0.32em" transform="translate(714,338)">1</text><text y="0.32em" transform="translate(714,143)">-0.078</text><text y="0.32em" transform="translate(714,26)">-0.064</text><text y="0.32em" transform="translate(714,65)">0.135</text><text y="0.32em" transform="translate(714,221)">-0.093</text><text y="0.32em" transform="translate(714,182)">-0.075</text><text y="0.32em" transform="translate(714,104)">-0.217</text><text y="0.32em" transform="translate(399,299)">0.252</text><text y="0.32em" transform="translate(399,260)">0.234</text><text y="0.32em" transform="translate(399,338)">-0.078</text><text y="0.32em" transform="translate(399,143)">1</text><text y="0.32em" transform="translate(399,26)">0.094</text><text y="0.32em" transform="translate(399,65)">-0.015</text><text y="0.32em" transform="translate(399,221)">0.249</text><text y="0.32em" transform="translate(399,182)">0.273</text><text y="0.32em" transform="translate(399,104)">0.065</text><text y="0.32em" transform="translate(210,299)">0.054</text><text y="0.32em" transform="translate(210,260)">0.196</text><text y="0.32em" transform="translate(210,338)">-0.064</text><text y="0.32em" transform="translate(210,143)">0.094</text><text y="0.32em" transform="translate(210,26)">1</text><text y="0.32em" transform="translate(210,65)">-0.131</text><text y="0.32em" transform="translate(210,221)">-0.03</text><text y="0.32em" transform="translate(210,182)">0.022</text><text y="0.32em" transform="translate(210,104)">0.114</text><text y="0.32em" transform="translate(273,299)">-0.067</text><text y="0.32em" transform="translate(273,260)">-0.078</text><text y="0.32em" transform="translate(273,338)">0.135</text><text y="0.32em" transform="translate(273,143)">-0.015</text><text y="0.32em" transform="translate(273,26)">-0.131</text><text y="0.32em" transform="translate(273,65)">1</text><text y="0.32em" transform="translate(273,221)">-0.088</text><text y="0.32em" transform="translate(273,182)">-0.053</text><text y="0.32em" transform="translate(273,104)">0.204</text><text y="0.32em" transform="translate(525,299)">0.333</text><text y="0.32em" transform="translate(525,260)">0.232</text><text y="0.32em" transform="translate(525,338)">-0.093</text><text y="0.32em" transform="translate(525,143)">0.249</text><text y="0.32em" transform="translate(525,26)">-0.03</text><text y="0.32em" transform="translate(525,65)">-0.088</text><text y="0.32em" transform="translate(525,221)">1</text><text y="0.32em" transform="translate(525,182)">0.311</text><text y="0.32em" transform="translate(525,104)">0.036</text><text y="0.32em" transform="translate(462,299)">0.268</text><text y="0.32em" transform="translate(462,260)">0.183</text><text y="0.32em" transform="translate(462,338)">-0.075</text><text y="0.32em" transform="translate(462,143)">0.273</text><text y="0.32em" transform="translate(462,26)">0.022</text><text y="0.32em" transform="translate(462,65)">-0.053</text><text y="0.32em" transform="translate(462,221)">0.311</text><text y="0.32em" transform="translate(462,182)">1</text><text y="0.32em" transform="translate(462,104)">0.037</text><text y="0.32em" transform="translate(336,299)">0.047</text><text y="0.32em" transform="translate(336,260)">0.107</text><text y="0.32em" transform="translate(336,338)">-0.217</text><text y="0.32em" transform="translate(336,143)">0.065</text><text y="0.32em" transform="translate(336,26)">0.114</text><text y="0.32em" transform="translate(336,65)">0.204</text><text y="0.32em" transform="translate(336,221)">0.036</text><text y="0.32em" transform="translate(336,182)">0.037</text><text y="0.32em" transform="translate(336,104)">1</text></g></svg>